Coordinates
version=1
nRows=7
nColumns=63
inDegrees=yes

Units are S.I. units (second, meters, Newtons, ...)
If the header above contains a line with 'inDegrees', this indicates whether rotational values are in degrees (yes) or radians (no).

endheader
time	pelvis_tilt	pelvis_list	pelvis_rotation	pelvis_tx	pelvis_ty	pelvis_tz	hip_flexion_r	hip_adduction_r	hip_rotation_r	knee_angle_r	knee_angle_r_beta	ankle_angle_r	subtalar_angle_r	mtp_angle_r	hip_flexion_l	hip_adduction_l	hip_rotation_l	knee_angle_l	knee_angle_l_beta	ankle_angle_l	subtalar_angle_l	mtp_angle_l	L5_S1_Flex_Ext	L5_S1_Lat_Bending	L5_S1_axial_rotation	L4_L5_Flex_Ext	L4_L5_Lat_Bending	L4_L5_axial_rotation	L3_L4_Flex_Ext	L3_L4_Lat_Bending	L3_L4_axial_rotation	L2_L3_Flex_Ext	L2_L3_Lat_Bending	L2_L3_axial_rotation	L1_L2_Flex_Ext	L1_L2_Lat_Bending	L1_L2_axial_rotation	L1_T12_Flex_Ext	L1_T12_Lat_Bending	L1_T12_axial_rotation	Abs_r3	Abs_r2	Abs_r1	Abs_t1	Abs_t2	neck_flexion	neck_bending	neck_rotation	arm_flex_r	arm_add_r	arm_rot_r	elbow_flex_r	pro_sup_r	wrist_flex_r	wrist_dev_r	arm_flex_l	arm_add_l	arm_rot_l	elbow_flex_l	pro_sup_l	wrist_flex_l	wrist_dev_l
      3.90000000	      4.61766326	     -1.51108408	     -9.68891752	      1.03574202	      0.97806300	      0.41517838	    -11.34090621	      3.04027438	     -7.80590252	      4.32757735	      0.07553047	     12.37931707	     12.03665565	      0.00000000	     25.67261510	     -8.71024020	    -12.78464345	     60.32325862	      1.05283948	     12.55361150	    -14.66199607	      0.00000000	     -0.00871205	      0.22013263	      1.40883229	     -0.01617916	      0.29277640	      1.49688431	     -0.01431303	      0.53523048	      1.49688431	     -0.00995701	      0.53523048	      1.23272826	     -0.00809001	      0.44889446	      1.14467624	     -0.00497807	      0.34098545	      1.05662422	     -0.06222934	      2.49018437	      7.83550256	      0.00000000	      0.00000000	      0.00000000	      0.00000000	      0.00000000	     13.09071681	    -14.19683560	     23.49163528	     35.49206042	     14.56576588	      0.00000000	      5.00000014	    -11.90303857	    -15.02000067	     47.49821838	     19.56465196	     64.42634485	      0.00000000	      5.00000014
      3.93333333	      4.54271067	     -1.76564700	    -11.82345631	      1.07221044	      0.97595903	      0.41703315	    -14.03129150	      2.48981953	     -3.36511535	      3.35486945	      0.05855352	     12.92294645	      8.39605911	      0.00000000	     26.47829788	     -9.02324474	    -14.52736508	     48.12672842	      0.83996987	     10.16521487	    -14.99560649	      0.00000000	     -0.01064490	      0.21282608	      2.13127369	     -0.01976864	      0.28305869	      2.26447830	     -0.01748850	      0.51746534	      2.26447830	     -0.01216605	      0.51746534	      1.86486448	     -0.00988485	      0.43399495	      1.73165988	     -0.00608249	      0.32966760	      1.59845527	     -0.07603544	      2.40753122	     11.85350490	      0.00000000	      0.00000000	      0.00000000	      0.00000000	      0.00000000	     14.94826847	    -16.00231853	     25.56948417	     36.93980085	     14.34950396	      0.00000000	      5.00000014	    -12.28509512	    -15.20405865	     46.62675920	     18.75112215	     64.65673115	      0.00000000	      5.00000014
      3.96666667	      4.48841947	     -2.15668887	    -13.71817958	      1.11134467	      0.97106242	      0.41879338	    -16.74781784	      1.81604096	      0.30236318	      2.81352469	      0.04910527	     13.32779609	      5.61543818	      0.00000000	     25.17670213	     -9.47525707	    -17.18361454	     34.36160981	      0.59972323	      5.38805838	    -13.64650146	      0.00000000	     -0.01007644	      0.21642161	      2.69756817	     -0.01871296	      0.28784074	      2.86616618	     -0.01655458	      0.52620749	      2.86616618	     -0.01151636	      0.52620749	      2.36037215	     -0.00935698	      0.44132694	      2.19177414	     -0.00575768	      0.33523707	      2.02317613	     -0.07197500	      2.44820449	     15.00306491	      0.00000000	      0.00000000	      0.00000000	      0.00000000	      0.00000000	     15.92683668	    -17.56798764	     26.67081096	     39.05596946	     15.43045176	      0.00000000	      5.00000014	    -14.69099252	    -14.50621380	     32.21477989	     19.76365452	     60.29284282	      0.00000000	      5.00000014
      4.00000000	      4.46528623	     -2.80570535	    -15.20500517	      1.15352544	      0.96351138	      0.41980264	    -19.36515443	      1.15438192	      0.93801558	      3.16073288	      0.05516520	     14.24358350	      6.64584077	      0.00000000	     22.72636671	     -9.95099186	    -21.19482750	     21.37137290	      0.37300082	      0.17769524	     -9.19626642	      0.00000000	     -0.01009207	      0.25281027	      3.10163216	     -0.01874198	      0.33623765	      3.29548417	     -0.01658026	      0.61468288	      3.29548417	     -0.01153422	      0.61468288	      2.71392814	     -0.00937149	      0.51553069	      2.52007613	     -0.00576661	      0.39160310	      2.32622412	     -0.07208663	      2.85984029	     17.25034759	      0.00000000	      0.00000000	      0.00000000	      0.00000000	      0.00000000	     16.38502308	    -18.84851207	     26.80490831	     41.58428313	     17.13758812	      0.00000000	      5.00000014	    -17.93405431	    -12.99100506	     13.92767555	     23.48388495	     56.54223191	      0.00000000	      5.00000014
      4.03333333	      4.51427192	     -3.73527060	    -16.23788855	      1.19879639	      0.95439284	      0.41977132	    -21.91425291	      0.64327066	      0.96706156	      4.42323603	      0.07720003	     14.91278753	      7.99750905	      0.00000000	     20.53849965	    -10.53472103	    -26.14385420	     12.25536040	      0.21389639	     -3.51470874	     -2.05891153	      0.00000000	     -0.00783950	      0.33218543	      3.35299202	     -0.01455874	      0.44180663	      3.56255402	     -0.01287952	      0.80767566	      3.56255402	     -0.00895977	      0.80767566	      2.93386802	     -0.00727976	      0.67739254	      2.72430602	     -0.00447949	      0.51455524	      2.51474402	     -0.05599677	      3.75774806	     18.64833572	      0.00000000	      0.00000000	      0.00000000	      0.00000000	      0.00000000	     16.41770763	    -19.53813328	     25.39610950	     44.10335666	     18.02455181	      0.00000000	      5.00000014	    -20.48973334	    -11.94591394	      4.86793953	     27.60972533	     55.21801707	      0.00000000	      5.00000014
      4.06666667	      4.72471688	     -4.50686208	    -16.45560077	      1.24692038	      0.94573166	      0.41822974	    -24.05058593	      0.04967207	      0.39724267	      7.16759785	      0.12509818	     14.95494772	      8.79846215	      0.00000000	     19.29966719	    -10.62904158	    -27.58200027	      7.98630620	      0.13938734	     -5.67363010	      0.83929932	      0.00000000	     -0.00355159	      0.40185110	      3.40586134	     -0.00659565	      0.53446196	      3.61872768	     -0.00583490	      0.97706076	      3.61872768	     -0.00405911	      0.97706076	      2.98012867	     -0.00329800	      0.81945476	      2.76726234	     -0.00202938	      0.62246735	      2.55439601	     -0.02536863	      4.54581998	     18.94237903	      0.00000000	      0.00000000	      0.00000000	      0.00000000	      0.00000000	     15.97741935	    -19.24755060	     22.33780438	     45.94247316	     18.15582709	      0.00000000	      5.00000014	    -22.26441022	    -11.35993700	      0.84247162	     30.69832713	     54.60061061	      0.00000000	      5.00000014
      4.10000000	      5.23465337	     -4.84272838	    -15.77094459	      1.29754479	      0.93940192	      0.41535723	    -25.58363145	     -0.70776859	     -0.43276078	     11.70320947	      0.20425954	     13.90375380	      7.87595638	      0.00000000	     18.47095296	    -10.26623953	    -26.97879143	      7.70622308	      0.13449897	     -5.60596562	      1.28621811	      0.00000000	     -0.00709312	      0.42319103	      3.22507175	     -0.01317264	      0.56284407	      3.42663874	     -0.01165329	      1.02894667	      3.42663874	     -0.00810673	      1.02894667	      2.82193778	     -0.00658667	      0.86297115	      2.62037080	     -0.00405301	      0.65552290	      2.41880381	     -0.05066546	      4.78722156	     17.93688156	      0.00000000	      0.00000000	      0.00000000	      0.00000000	      0.00000000	     15.44015017	    -18.13123380	     19.75389973	     46.32860947	     18.02474686	      0.00000000	      5.00000014	    -23.27746860	    -11.07259019	     -0.97387572	     32.58233350	     54.27021487	      0.00000000	      5.00000014
